<?xml version="1.0" encoding="utf-8" standalone="no"?>
<!DOCTYPE svg PUBLIC "-//W3C//DTD SVG 1.1//EN"
  "http://www.w3.org/Graphics/SVG/1.1/DTD/svg11.dtd">
<svg xmlns:xlink="http://www.w3.org/1999/xlink" width="432pt" height="259.2pt" viewBox="0 0 432 259.2" xmlns="http://www.w3.org/2000/svg" version="1.1">
 <metadata>
  <rdf:RDF xmlns:dc="http://purl.org/dc/elements/1.1/" xmlns:cc="http://creativecommons.org/ns#" xmlns:rdf="http://www.w3.org/1999/02/22-rdf-syntax-ns#">
   <cc:Work>
    <dc:type rdf:resource="http://purl.org/dc/dcmitype/StillImage"/>
    <dc:format>image/svg+xml</dc:format>
    <dc:creator>
     <cc:Agent>
      <dc:title>Matplotlib; PIT_T05 display-only unit correction</dc:title>
     </cc:Agent>
    </dc:creator>
   </cc:Work>
  </rdf:RDF>
 </metadata>
 <defs>
  <style type="text/css">text,tspan{font-family:'DejaVu Serif',Georgia,'Times New Roman',serif!important}</style>
  <style type="text/css">*{stroke-linejoin: round; stroke-linecap: butt}</style>
 </defs>
 <g id="figure_1">
  <g id="patch_1">
   <path d="M 0 259.2 
L 432 259.2 
L 432 0 
L 0 0 
z
" style="fill: #ffffff"/>
  </g>
  <g id="axes_1">
   <g id="patch_2">
    <path d="M 43.2 114.048 
L 388.8 114.048 
L 388.8 75.168 
L 43.2 75.168 
z
" style="fill: #ffffff"/>
   </g>
   <g id="matplotlib.axis_1">
    <g id="xtick_1">
     <g id="line2d_1">
      <path d="M 65.786715 114.048 
L 65.786715 75.168 
" clip-path="url(#pff73850530)" style="fill: none; stroke: #e4edf0; stroke-width: 0.7; stroke-linecap: square"/>
     </g>
     <g id="line2d_2">
      <defs>
       <path id="md04f87139d" d="M 0 0 
L 0 3 
" style="stroke: #17364a; stroke-width: 0.8"/>
      </defs>
      <g>
       <use xlink:href="#md04f87139d" x="65.786715" y="114.048" style="fill: #17364a; stroke: #17364a; stroke-width: 0.8"/>
      </g>
     </g>
     <g id="text_1">
      <!-- $\mathdefault{10^{-16}}$ -->
      <g style="fill: #17364a" transform="translate(51.836715 127.646437)">
       <text>
        <tspan style="font: 10px 'DejaVu Serif'" x="0 6.362305" y="-0.17343750000000036">10</tspan>
        <tspan style="font: 7px 'DejaVu Serif'" x="12.815391 18.680625 23.134238" y="-3.8046875">−16</tspan>
       </text>
      </g>
     </g>
    </g>
    <g id="xtick_2">
     <g id="line2d_3">
      <path d="M 156.133574 114.048 
L 156.133574 75.168 
" clip-path="url(#pff73850530)" style="fill: none; stroke: #e4edf0; stroke-width: 0.7; stroke-linecap: square"/>
     </g>
     <g id="line2d_4">
      <g>
       <use xlink:href="#md04f87139d" x="156.133574" y="114.048" style="fill: #17364a; stroke: #17364a; stroke-width: 0.8"/>
      </g>
     </g>
     <g id="text_2">
      <!-- $\mathdefault{10^{-12}}$ -->
      <g style="fill: #17364a" transform="translate(142.183574 127.646437)">
       <text>
        <tspan style="font: 10px 'DejaVu Serif'" x="0 6.362305" y="-0.17343750000000036">10</tspan>
        <tspan style="font: 7px 'DejaVu Serif'" x="12.815391 18.680625 23.134238" y="-3.8046875">−12</tspan>
       </text>
      </g>
     </g>
    </g>
    <g id="xtick_3">
     <g id="line2d_5">
      <path d="M 246.480433 114.048 
L 246.480433 75.168 
" clip-path="url(#pff73850530)" style="fill: none; stroke: #e4edf0; stroke-width: 0.7; stroke-linecap: square"/>
     </g>
     <g id="line2d_6">
      <g>
       <use xlink:href="#md04f87139d" x="246.480433" y="114.048" style="fill: #17364a; stroke: #17364a; stroke-width: 0.8"/>
      </g>
     </g>
     <g id="text_3">
      <!-- $\mathdefault{10^{-8}}$ -->
      <g style="fill: #17364a" transform="translate(234.780433 127.646437)">
       <text>
        <tspan style="font: 10px 'DejaVu Serif'" x="0 6.362305" y="-0.17343750000000036">10</tspan>
        <tspan style="font: 7px 'DejaVu Serif'" x="12.815391 18.680625" y="-3.8046875">−8</tspan>
       </text>
      </g>
     </g>
    </g>
    <g id="xtick_4">
     <g id="line2d_7">
      <path d="M 336.827292 114.048 
L 336.827292 75.168 
" clip-path="url(#pff73850530)" style="fill: none; stroke: #e4edf0; stroke-width: 0.7; stroke-linecap: square"/>
     </g>
     <g id="line2d_8">
      <g>
       <use xlink:href="#md04f87139d" x="336.827292" y="114.048" style="fill: #17364a; stroke: #17364a; stroke-width: 0.8"/>
      </g>
     </g>
     <g id="text_4">
      <!-- $\mathdefault{10^{-4}}$ -->
      <g style="fill: #17364a" transform="translate(325.127292 127.646437)">
       <text>
        <tspan style="font: 10px 'DejaVu Serif'" x="0 6.362305" y="-0.17343750000000036">10</tspan>
        <tspan style="font: 7px 'DejaVu Serif'" x="12.815391 18.680625" y="-3.8046875">−4</tspan>
       </text>
      </g>
     </g>
    </g>
   </g>
   <g id="matplotlib.axis_2"/>
   <g id="primal-residual-to-gate">
    <path d="M 65.786715 94.608 
L 369.14003 94.608 
" clip-path="url(#pff73850530)" style="fill: none; stroke: #17364a; stroke-width: 1.5"/>
   </g>
   <g id="primal-actual">
    <path d="M 65.786715 94.608 
" clip-path="url(#pff73850530)" style="fill: none; stroke: #17364a; stroke-width: 1.5; stroke-linecap: square"/>
    <defs>
     <path id="m4a8dfa779f" d="M 0 2.75 
C 0.729309 2.75 1.428845 2.460243 1.944544 1.944544 
C 2.460243 1.428845 2.75 0.729309 2.75 0 
C 2.75 -0.729309 2.460243 -1.428845 1.944544 -1.944544 
C 1.428845 -2.460243 0.729309 -2.75 0 -2.75 
C -0.729309 -2.75 -1.428845 -2.460243 -1.944544 -1.944544 
C -2.460243 -1.428845 -2.75 -0.729309 -2.75 0 
C -2.75 0.729309 -2.460243 1.428845 -1.944544 1.944544 
C -1.428845 2.460243 -0.729309 2.75 0 2.75 
z
" style="stroke: #17364a"/>
    </defs>
    <g clip-path="url(#pff73850530)">
     <use xlink:href="#m4a8dfa779f" x="65.786715" y="94.608" style="fill: #17364a; stroke: #17364a"/>
    </g>
   </g>
   <g id="primal-threshold">
    <path d="M 369.14003 94.608 
" clip-path="url(#pff73850530)" style="fill: none; stroke: #17364a; stroke-width: 1.5; stroke-linecap: square"/>
    <defs>
     <path id="m99c8043b55" d="M 0 6.5 
L 0 -6.5 
" style="stroke: #17364a; stroke-width: 1.5"/>
    </defs>
    <g clip-path="url(#pff73850530)">
     <use xlink:href="#m99c8043b55" x="369.14003" y="94.608" style="fill: #17364a; stroke: #17364a; stroke-width: 1.5"/>
    </g>
   </g>
   <g id="patch_3">
    <path d="M 43.2 114.048 
L 388.8 114.048 
" style="fill: none; stroke: #8ea0ab; stroke-width: 0.8; stroke-linejoin: miter; stroke-linecap: square"/>
   </g>
   <g id="text_5">
    <text style="fill: #17364a; font: 700 11px 'DejaVu Serif'; text-anchor: end" x="388.8" y="143.401481" transform="rotate(-0 388.8 143.401481)">PCE</text>
   </g>
   <g id="text_6">
    <text style="fill: #17364a; font: 10px 'DejaVu Serif'; text-anchor: start" x="65.786715" y="82.528312" transform="rotate(-0 65.786715 82.528312)">0 PCE</text>
   </g>
   <g id="text_7">
    <text style="fill: #17364a; font: 10px 'DejaVu Serif'; text-anchor: end" x="369.14003" y="82.528312" transform="rotate(-0 369.14003 82.528312)">Gate 0.0026953 PCE</text>
   </g>
   <g id="text_8">
    <text style="fill: #17364a; font: 11.5px 'DejaVu Serif'; text-anchor: start" x="43.2" y="62.168" transform="rotate(-0 43.2 62.168)">Primal residual</text>
   </g>
  </g>
  <g id="axes_2">
   <g id="patch_4">
    <path d="M 43.2 206.064 
L 388.8 206.064 
L 388.8 167.184 
L 43.2 167.184 
z
" style="fill: #ffffff"/>
   </g>
   <g id="matplotlib.axis_3">
    <g id="xtick_5">
     <g id="line2d_9">
      <path d="M 65.786715 206.064 
L 65.786715 167.184 
" clip-path="url(#p1b3e42127e)" style="fill: none; stroke: #e4edf0; stroke-width: 0.7; stroke-linecap: square"/>
     </g>
     <g id="line2d_10">
      <g>
       <use xlink:href="#md04f87139d" x="65.786715" y="206.064" style="fill: #17364a; stroke: #17364a; stroke-width: 0.8"/>
      </g>
     </g>
     <g id="text_9">
      <!-- $\mathdefault{10^{-16}}$ -->
      <g style="fill: #17364a" transform="translate(51.836715 219.662438)">
       <text>
        <tspan style="font: 10px 'DejaVu Serif'" x="0 6.362305" y="-0.17343750000000036">10</tspan>
        <tspan style="font: 7px 'DejaVu Serif'" x="12.815391 18.680625 23.134238" y="-3.8046875">−16</tspan>
       </text>
      </g>
     </g>
    </g>
    <g id="xtick_6">
     <g id="line2d_11">
      <path d="M 156.133574 206.064 
L 156.133574 167.184 
" clip-path="url(#p1b3e42127e)" style="fill: none; stroke: #e4edf0; stroke-width: 0.7; stroke-linecap: square"/>
     </g>
     <g id="line2d_12">
      <g>
       <use xlink:href="#md04f87139d" x="156.133574" y="206.064" style="fill: #17364a; stroke: #17364a; stroke-width: 0.8"/>
      </g>
     </g>
     <g id="text_10">
      <!-- $\mathdefault{10^{-12}}$ -->
      <g style="fill: #17364a" transform="translate(142.183574 219.662438)">
       <text>
        <tspan style="font: 10px 'DejaVu Serif'" x="0 6.362305" y="-0.17343750000000036">10</tspan>
        <tspan style="font: 7px 'DejaVu Serif'" x="12.815391 18.680625 23.134238" y="-3.8046875">−12</tspan>
       </text>
      </g>
     </g>
    </g>
    <g id="xtick_7">
     <g id="line2d_13">
      <path d="M 246.480433 206.064 
L 246.480433 167.184 
" clip-path="url(#p1b3e42127e)" style="fill: none; stroke: #e4edf0; stroke-width: 0.7; stroke-linecap: square"/>
     </g>
     <g id="line2d_14">
      <g>
       <use xlink:href="#md04f87139d" x="246.480433" y="206.064" style="fill: #17364a; stroke: #17364a; stroke-width: 0.8"/>
      </g>
     </g>
     <g id="text_11">
      <!-- $\mathdefault{10^{-8}}$ -->
      <g style="fill: #17364a" transform="translate(234.780433 219.662438)">
       <text>
        <tspan style="font: 10px 'DejaVu Serif'" x="0 6.362305" y="-0.17343750000000036">10</tspan>
        <tspan style="font: 7px 'DejaVu Serif'" x="12.815391 18.680625" y="-3.8046875">−8</tspan>
       </text>
      </g>
     </g>
    </g>
    <g id="xtick_8">
     <g id="line2d_15">
      <path d="M 336.827292 206.064 
L 336.827292 167.184 
" clip-path="url(#p1b3e42127e)" style="fill: none; stroke: #e4edf0; stroke-width: 0.7; stroke-linecap: square"/>
     </g>
     <g id="line2d_16">
      <g>
       <use xlink:href="#md04f87139d" x="336.827292" y="206.064" style="fill: #17364a; stroke: #17364a; stroke-width: 0.8"/>
      </g>
     </g>
     <g id="text_12">
      <!-- $\mathdefault{10^{-4}}$ -->
      <g style="fill: #17364a" transform="translate(325.127292 219.662438)">
       <text>
        <tspan style="font: 10px 'DejaVu Serif'" x="0 6.362305" y="-0.17343750000000036">10</tspan>
        <tspan style="font: 7px 'DejaVu Serif'" x="12.815391 18.680625" y="-3.8046875">−4</tspan>
       </text>
      </g>
     </g>
    </g>
   </g>
   <g id="matplotlib.axis_4"/>
   <g id="dual-residual-to-gate">
    <path d="M 137.594305 186.624 
L 369.128455 186.624 
" clip-path="url(#p1b3e42127e)" style="fill: none; stroke: #087f8c; stroke-width: 1.5"/>
   </g>
   <g id="dual-actual">
    <path d="M 137.594305 186.624 
" clip-path="url(#p1b3e42127e)" style="fill: none; stroke: #087f8c; stroke-width: 1.5; stroke-linecap: square"/>
    <defs>
     <path id="m9d4cfd657b" d="M 0 2.75 
C 0.729309 2.75 1.428845 2.460243 1.944544 1.944544 
C 2.460243 1.428845 2.75 0.729309 2.75 0 
C 2.75 -0.729309 2.460243 -1.428845 1.944544 -1.944544 
C 1.428845 -2.460243 0.729309 -2.75 0 -2.75 
C -0.729309 -2.75 -1.428845 -2.460243 -1.944544 -1.944544 
C -2.460243 -1.428845 -2.75 -0.729309 -2.75 0 
C -2.75 0.729309 -2.460243 1.428845 -1.944544 1.944544 
C -1.428845 2.460243 -0.729309 2.75 0 2.75 
z
" style="stroke: #087f8c"/>
    </defs>
    <g clip-path="url(#p1b3e42127e)">
     <use xlink:href="#m9d4cfd657b" x="137.594305" y="186.624" style="fill: #087f8c; stroke: #087f8c"/>
    </g>
   </g>
   <g id="dual-threshold">
    <path d="M 369.128455 186.624 
" clip-path="url(#p1b3e42127e)" style="fill: none; stroke: #087f8c; stroke-width: 1.5; stroke-linecap: square"/>
    <defs>
     <path id="m860d704a6e" d="M 0 6.5 
L 0 -6.5 
" style="stroke: #087f8c; stroke-width: 1.5"/>
    </defs>
    <g clip-path="url(#p1b3e42127e)">
     <use xlink:href="#m860d704a6e" x="369.128455" y="186.624" style="fill: #087f8c; stroke: #087f8c; stroke-width: 1.5"/>
    </g>
   </g>
   <g id="patch_5">
    <path d="M 43.2 206.064 
L 388.8 206.064 
" style="fill: none; stroke: #8ea0ab; stroke-width: 0.8; stroke-linejoin: miter; stroke-linecap: square"/>
   </g>
   <g id="text_13">
    <text style="fill: #17364a; font: 700 11px 'DejaVu Serif'; text-anchor: end" x="388.8" y="235.417481" transform="rotate(-0 388.8 235.417481)">min</text>
   </g>
   <g id="text_14">
    <text style="fill: #087f8c; font: 10px 'DejaVu Serif'; text-anchor: start" x="137.594305" y="174.544312" transform="rotate(-0 137.594305 174.544312)">1.51076 × 10⁻¹³ min</text>
   </g>
   <g id="text_15">
    <text style="fill: #087f8c; font: 10px 'DejaVu Serif'; text-anchor: end" x="369.128455" y="174.544312" transform="rotate(-0 369.128455 174.544312)">Gate 0.0026921 min</text>
   </g>
   <g id="text_16">
    <text style="fill: #17364a; font: 11.5px 'DejaVu Serif'; text-anchor: start" x="43.2" y="154.184" transform="rotate(-0 43.2 154.184)">Rho-scaled dual residual</text>
   </g>
  </g>
  <g id="text_17">
   <text style="fill: #17364a; font: 700 14px 'DejaVu Serif'; text-anchor: start" x="30.24" y="16.848" transform="rotate(-0 30.24 16.848)">ADMM stop gates</text>
  </g>
  <g id="text_18">
   <text style="fill: #087f8c; font: 10px 'DejaVu Serif'; text-anchor: end" x="401.76" y="15.552" transform="rotate(-0 401.76 15.552)">Pittsburgh</text>
  </g>
  <g id="text_19">
   <text style="fill: #53697a; font: 10px 'DejaVu Serif'; text-anchor: start" x="30.24" y="38.88" transform="rotate(-0 30.24 38.88)">One completed iteration · cold start</text>
  </g>
  <g id="text_20">
   <text style="fill: #53697a; font: 9px 'DejaVu Serif'; text-anchor: start" x="30.24" y="250.128" transform="rotate(-0 30.24 250.128)">Dot: residual · tick: threshold. Zero shown at 10⁻¹⁶ PCE.</text>
  </g>
 </g>
 <defs>
  <clipPath id="pff73850530">
   <rect x="43.2" y="75.168" width="345.6" height="38.88"/>
  </clipPath>
  <clipPath id="p1b3e42127e">
   <rect x="43.2" y="167.184" width="345.6" height="38.88"/>
  </clipPath>
 </defs>
</svg>
