<?xml version="1.0" encoding="utf-8" standalone="no"?>
<!DOCTYPE svg PUBLIC "-//W3C//DTD SVG 1.1//EN"
  "http://www.w3.org/Graphics/SVG/1.1/DTD/svg11.dtd">
<svg xmlns:xlink="http://www.w3.org/1999/xlink" width="432pt" height="259.2pt" viewBox="0 0 432 259.2" xmlns="http://www.w3.org/2000/svg" version="1.1">
 <metadata>
  <rdf:RDF xmlns:dc="http://purl.org/dc/elements/1.1/" xmlns:cc="http://creativecommons.org/ns#" xmlns:rdf="http://www.w3.org/1999/02/22-rdf-syntax-ns#">
   <cc:Work>
    <dc:type rdf:resource="http://purl.org/dc/dcmitype/StillImage"/>
    <dc:date>2026-10-05T04:42:06.739095</dc:date>
    <dc:format>image/svg+xml</dc:format>
    <dc:creator>
     <cc:Agent>
      <dc:title>Matplotlib v3.7.1, https://matplotlib.org/</dc:title>
     </cc:Agent>
    </dc:creator>
   </cc:Work>
  </rdf:RDF>
 </metadata>
 <defs>
  <style type="text/css">*{stroke-linejoin: round; stroke-linecap: butt}</style>
 </defs>
 <g id="figure_1">
  <g id="patch_1">
   <path d="M 0 259.2 
L 432 259.2 
L 432 0 
L 0 0 
z
" style="fill: #ffffff"/>
  </g>
  <g id="axes_1">
   <g id="patch_2">
    <path d="M 47.52 194.4 
L 384.48 194.4 
L 384.48 46.656 
L 47.52 46.656 
z
" style="fill: #ffffff"/>
   </g>
   <g id="patch_3">
    <path d="M 62.836364 194.4 
L 72.717889 194.4 
L 72.717889 99.029502 
L 62.836364 99.029502 
z
" clip-path="url(#pf600d69b4e)" style="fill: #17364a"/>
   </g>
   <g id="patch_4">
    <path d="M 88.840377 194.4 
L 98.721902 194.4 
L 98.721902 100.768784 
L 88.840377 100.768784 
z
" clip-path="url(#pf600d69b4e)" style="fill: #17364a"/>
   </g>
   <g id="patch_5">
    <path d="M 114.84439 194.4 
L 124.725914 194.4 
L 124.725914 102.859853 
L 114.84439 102.859853 
z
" clip-path="url(#pf600d69b4e)" style="fill: #17364a"/>
   </g>
   <g id="patch_6">
    <path d="M 140.848403 194.4 
L 150.729927 194.4 
L 150.729927 108.425422 
L 140.848403 108.425422 
z
" clip-path="url(#pf600d69b4e)" style="fill: #17364a"/>
   </g>
   <g id="patch_7">
    <path d="M 166.852415 194.4 
L 176.73394 194.4 
L 176.73394 131.985501 
L 166.852415 131.985501 
z
" clip-path="url(#pf600d69b4e)" style="fill: #17364a"/>
   </g>
   <g id="patch_8">
    <path d="M 192.856428 194.4 
L 202.737953 194.4 
L 202.737953 135.401488 
L 192.856428 135.401488 
z
" clip-path="url(#pf600d69b4e)" style="fill: #17364a"/>
   </g>
   <g id="patch_9">
    <path d="M 218.860441 194.4 
L 228.741966 194.4 
L 228.741966 142.867082 
L 218.860441 142.867082 
z
" clip-path="url(#pf600d69b4e)" style="fill: #17364a"/>
   </g>
   <g id="patch_10">
    <path d="M 244.864454 194.4 
L 254.745979 194.4 
L 254.745979 148.690847 
L 244.864454 148.690847 
z
" clip-path="url(#pf600d69b4e)" style="fill: #17364a"/>
   </g>
   <g id="patch_11">
    <path d="M 270.868467 194.4 
L 280.749992 194.4 
L 280.749992 151.331335 
L 270.868467 151.331335 
z
" clip-path="url(#pf600d69b4e)" style="fill: #17364a"/>
   </g>
   <g id="patch_12">
    <path d="M 296.87248 194.4 
L 306.754005 194.4 
L 306.754005 153.639766 
L 296.87248 153.639766 
z
" clip-path="url(#pf600d69b4e)" style="fill: #17364a"/>
   </g>
   <g id="patch_13">
    <path d="M 322.876493 194.4 
L 332.758018 194.4 
L 332.758018 159.53525 
L 322.876493 159.53525 
z
" clip-path="url(#pf600d69b4e)" style="fill: #17364a"/>
   </g>
   <g id="patch_14">
    <path d="M 348.880506 194.4 
L 358.762031 194.4 
L 358.762031 164.773649 
L 348.880506 164.773649 
z
" clip-path="url(#pf600d69b4e)" style="fill: #17364a"/>
   </g>
   <g id="patch_15">
    <path d="M 73.237969 194.4 
L 83.119494 194.4 
L 83.119494 138.289461 
L 73.237969 138.289461 
z
" clip-path="url(#pf600d69b4e)" style="fill: #087f8c"/>
   </g>
   <g id="patch_16">
    <path d="M 99.241982 194.4 
L 109.123507 194.4 
L 109.123507 188.287056 
L 99.241982 188.287056 
z
" clip-path="url(#pf600d69b4e)" style="fill: #087f8c"/>
   </g>
   <g id="patch_17">
    <path d="M 125.245995 194.4 
L 135.12752 194.4 
L 135.12752 153.422877 
L 125.245995 153.422877 
z
" clip-path="url(#pf600d69b4e)" style="fill: #087f8c"/>
   </g>
   <g id="patch_18">
    <path d="M 151.250008 194.4 
L 161.131533 194.4 
L 161.131533 100.773728 
L 151.250008 100.773728 
z
" clip-path="url(#pf600d69b4e)" style="fill: #087f8c"/>
   </g>
   <g id="patch_19">
    <path d="M 177.254021 194.4 
L 187.135546 194.4 
L 187.135546 190.280352 
L 177.254021 190.280352 
z
" clip-path="url(#pf600d69b4e)" style="fill: #087f8c"/>
   </g>
   <g id="patch_20">
    <path d="M 203.258034 194.4 
L 213.139559 194.4 
L 213.139559 181.194896 
L 203.258034 181.194896 
z
" clip-path="url(#pf600d69b4e)" style="fill: #087f8c"/>
   </g>
   <g id="patch_21">
    <path d="M 229.262047 194.4 
L 239.143572 194.4 
L 239.143572 161.14324 
L 229.262047 161.14324 
z
" clip-path="url(#pf600d69b4e)" style="fill: #087f8c"/>
   </g>
   <g id="patch_22">
    <path d="M 255.26606 194.4 
L 265.147585 194.4 
L 265.147585 189.731032 
L 255.26606 189.731032 
z
" clip-path="url(#pf600d69b4e)" style="fill: #087f8c"/>
   </g>
   <g id="patch_23">
    <path d="M 281.270073 194.4 
L 291.151597 194.4 
L 291.151597 188.813589 
L 281.270073 188.813589 
z
" clip-path="url(#pf600d69b4e)" style="fill: #087f8c"/>
   </g>
   <g id="patch_24">
    <path d="M 307.274086 194.4 
L 317.15561 194.4 
L 317.15561 191.58372 
L 307.274086 191.58372 
z
" clip-path="url(#pf600d69b4e)" style="fill: #087f8c"/>
   </g>
   <g id="patch_25">
    <path d="M 333.278098 194.4 
L 343.159623 194.4 
L 343.159623 190.890126 
L 333.278098 190.890126 
z
" clip-path="url(#pf600d69b4e)" style="fill: #087f8c"/>
   </g>
   <g id="patch_26">
    <path d="M 359.282111 194.4 
L 369.163636 194.4 
L 369.163636 53.691429 
L 359.282111 53.691429 
z
" clip-path="url(#pf600d69b4e)" style="fill: #087f8c"/>
   </g>
   <g id="matplotlib.axis_1">
    <g id="xtick_1">
     <g id="line2d_1">
      <defs>
       <path id="m9bfa2bd0f3" d="M 0 0 
L 0 3.5 
" style="stroke: #000000; stroke-width: 0.8"/>
      </defs>
      <g>
       <use xlink:href="#m9bfa2bd0f3" x="72.977929" y="194.4" style="stroke: #000000; stroke-width: 0.8"/>
      </g>
     </g>
     <g id="text_1">
      <!-- AA_U33 -->
      <g transform="translate(54.753798 221.77263) rotate(-45) scale(0.06 -0.06)">
       <defs>
        <path id="DejaVuSerif-41" d="M 1281 1691 
L 2994 1691 
L 2138 3909 
L 1281 1691 
z
M -38 0 
L -38 331 
L 372 331 
L 2034 4666 
L 2559 4666 
L 4225 331 
L 4684 331 
L 4684 0 
L 2988 0 
L 2988 331 
L 3506 331 
L 3116 1356 
L 1153 1356 
L 763 331 
L 1275 331 
L 1275 0 
L -38 0 
z
" transform="scale(0.015625)"/>
        <path id="DejaVuSerif-5f" d="M 3200 -1259 
L 3200 -1509 
L 0 -1509 
L 0 -1259 
L 3200 -1259 
z
" transform="scale(0.015625)"/>
        <path id="DejaVuSerif-55" d="M 897 4331 
L 300 4331 
L 300 4666 
L 2125 4666 
L 2125 4331 
L 1528 4331 
L 1528 1919 
Q 1528 1025 1820 672 
Q 2113 319 2828 319 
Q 3544 319 3836 672 
Q 4128 1025 4128 1919 
L 4128 4331 
L 3531 4331 
L 3531 4666 
L 5106 4666 
L 5106 4331 
L 4513 4331 
L 4513 1856 
Q 4513 791 4103 350 
Q 3694 -91 2713 -91 
Q 1731 -91 1314 353 
Q 897 797 897 1856 
L 897 4331 
z
" transform="scale(0.015625)"/>
        <path id="DejaVuSerif-33" d="M 622 4469 
Q 988 4606 1323 4678 
Q 1659 4750 1953 4750 
Q 2638 4750 3022 4454 
Q 3406 4159 3406 3634 
Q 3406 3213 3140 2930 
Q 2875 2647 2388 2547 
Q 2963 2466 3280 2130 
Q 3597 1794 3597 1259 
Q 3597 606 3158 257 
Q 2719 -91 1894 -91 
Q 1528 -91 1179 -12 
Q 831 66 488 225 
L 488 1131 
L 838 1131 
Q 869 681 1141 450 
Q 1413 219 1906 219 
Q 2384 219 2661 495 
Q 2938 772 2938 1253 
Q 2938 1803 2653 2086 
Q 2369 2369 1819 2369 
L 1522 2369 
L 1522 2688 
L 1678 2688 
Q 2225 2688 2498 2914 
Q 2772 3141 2772 3597 
Q 2772 4006 2547 4223 
Q 2322 4441 1900 4441 
Q 1478 4441 1245 4241 
Q 1013 4041 972 3647 
L 622 3647 
L 622 4469 
z
" transform="scale(0.015625)"/>
       </defs>
       <use xlink:href="#DejaVuSerif-41"/>
       <use xlink:href="#DejaVuSerif-41" x="72.216797"/>
       <use xlink:href="#DejaVuSerif-5f" x="144.433594"/>
       <use xlink:href="#DejaVuSerif-55" x="194.433594"/>
       <use xlink:href="#DejaVuSerif-33" x="278.710938"/>
       <use xlink:href="#DejaVuSerif-33" x="342.333984"/>
      </g>
     </g>
    </g>
    <g id="xtick_2">
     <g id="line2d_2">
      <g>
       <use xlink:href="#m9bfa2bd0f3" x="98.981942" y="194.4" style="stroke: #000000; stroke-width: 0.8"/>
      </g>
     </g>
     <g id="text_2">
      <!-- AA_U23 -->
      <g transform="translate(80.757811 221.77263) rotate(-45) scale(0.06 -0.06)">
       <defs>
        <path id="DejaVuSerif-32" d="M 819 3553 
L 469 3553 
L 469 4384 
Q 803 4563 1142 4656 
Q 1481 4750 1806 4750 
Q 2534 4750 2956 4397 
Q 3378 4044 3378 3438 
Q 3378 2753 2422 1800 
Q 2347 1728 2309 1691 
L 1131 513 
L 3078 513 
L 3078 1088 
L 3444 1088 
L 3444 0 
L 434 0 
L 434 341 
L 1850 1753 
Q 2319 2222 2519 2614 
Q 2719 3006 2719 3438 
Q 2719 3909 2473 4175 
Q 2228 4441 1797 4441 
Q 1350 4441 1106 4219 
Q 863 3997 819 3553 
z
" transform="scale(0.015625)"/>
       </defs>
       <use xlink:href="#DejaVuSerif-41"/>
       <use xlink:href="#DejaVuSerif-41" x="72.216797"/>
       <use xlink:href="#DejaVuSerif-5f" x="144.433594"/>
       <use xlink:href="#DejaVuSerif-55" x="194.433594"/>
       <use xlink:href="#DejaVuSerif-32" x="278.710938"/>
       <use xlink:href="#DejaVuSerif-33" x="342.333984"/>
      </g>
     </g>
    </g>
    <g id="xtick_3">
     <g id="line2d_3">
      <g>
       <use xlink:href="#m9bfa2bd0f3" x="124.985955" y="194.4" style="stroke: #000000; stroke-width: 0.8"/>
      </g>
     </g>
     <g id="text_3">
      <!-- AA_U43 -->
      <g transform="translate(106.761824 221.77263) rotate(-45) scale(0.06 -0.06)">
       <defs>
        <path id="DejaVuSerif-34" d="M 2234 1581 
L 2234 4063 
L 641 1581 
L 2234 1581 
z
M 3609 0 
L 1484 0 
L 1484 331 
L 2234 331 
L 2234 1247 
L 197 1247 
L 197 1588 
L 2241 4750 
L 2859 4750 
L 2859 1581 
L 3750 1581 
L 3750 1247 
L 2859 1247 
L 2859 331 
L 3609 331 
L 3609 0 
z
" transform="scale(0.015625)"/>
       </defs>
       <use xlink:href="#DejaVuSerif-41"/>
       <use xlink:href="#DejaVuSerif-41" x="72.216797"/>
       <use xlink:href="#DejaVuSerif-5f" x="144.433594"/>
       <use xlink:href="#DejaVuSerif-55" x="194.433594"/>
       <use xlink:href="#DejaVuSerif-34" x="278.710938"/>
       <use xlink:href="#DejaVuSerif-33" x="342.333984"/>
      </g>
     </g>
    </g>
    <g id="xtick_4">
     <g id="line2d_4">
      <g>
       <use xlink:href="#m9bfa2bd0f3" x="150.989968" y="194.4" style="stroke: #000000; stroke-width: 0.8"/>
      </g>
     </g>
     <g id="text_4">
      <!-- AA_U32 -->
      <g transform="translate(132.765837 221.77263) rotate(-45) scale(0.06 -0.06)">
       <use xlink:href="#DejaVuSerif-41"/>
       <use xlink:href="#DejaVuSerif-41" x="72.216797"/>
       <use xlink:href="#DejaVuSerif-5f" x="144.433594"/>
       <use xlink:href="#DejaVuSerif-55" x="194.433594"/>
       <use xlink:href="#DejaVuSerif-33" x="278.710938"/>
       <use xlink:href="#DejaVuSerif-32" x="342.333984"/>
      </g>
     </g>
    </g>
    <g id="xtick_5">
     <g id="line2d_5">
      <g>
       <use xlink:href="#m9bfa2bd0f3" x="176.993981" y="194.4" style="stroke: #000000; stroke-width: 0.8"/>
      </g>
     </g>
     <g id="text_5">
      <!-- AA_U22 -->
      <g transform="translate(158.76985 221.77263) rotate(-45) scale(0.06 -0.06)">
       <use xlink:href="#DejaVuSerif-41"/>
       <use xlink:href="#DejaVuSerif-41" x="72.216797"/>
       <use xlink:href="#DejaVuSerif-5f" x="144.433594"/>
       <use xlink:href="#DejaVuSerif-55" x="194.433594"/>
       <use xlink:href="#DejaVuSerif-32" x="278.710938"/>
       <use xlink:href="#DejaVuSerif-32" x="342.333984"/>
      </g>
     </g>
    </g>
    <g id="xtick_6">
     <g id="line2d_6">
      <g>
       <use xlink:href="#m9bfa2bd0f3" x="202.997994" y="194.4" style="stroke: #000000; stroke-width: 0.8"/>
      </g>
     </g>
     <g id="text_6">
      <!-- AA_U13 -->
      <g transform="translate(184.773863 221.77263) rotate(-45) scale(0.06 -0.06)">
       <defs>
        <path id="DejaVuSerif-31" d="M 909 0 
L 909 331 
L 1722 331 
L 1722 4213 
L 781 3603 
L 781 4013 
L 1919 4750 
L 2350 4750 
L 2350 331 
L 3163 331 
L 3163 0 
L 909 0 
z
" transform="scale(0.015625)"/>
       </defs>
       <use xlink:href="#DejaVuSerif-41"/>
       <use xlink:href="#DejaVuSerif-41" x="72.216797"/>
       <use xlink:href="#DejaVuSerif-5f" x="144.433594"/>
       <use xlink:href="#DejaVuSerif-55" x="194.433594"/>
       <use xlink:href="#DejaVuSerif-31" x="278.710938"/>
       <use xlink:href="#DejaVuSerif-33" x="342.333984"/>
      </g>
     </g>
    </g>
    <g id="xtick_7">
     <g id="line2d_7">
      <g>
       <use xlink:href="#m9bfa2bd0f3" x="229.002006" y="194.4" style="stroke: #000000; stroke-width: 0.8"/>
      </g>
     </g>
     <g id="text_7">
      <!-- AA_U42 -->
      <g transform="translate(210.777876 221.77263) rotate(-45) scale(0.06 -0.06)">
       <use xlink:href="#DejaVuSerif-41"/>
       <use xlink:href="#DejaVuSerif-41" x="72.216797"/>
       <use xlink:href="#DejaVuSerif-5f" x="144.433594"/>
       <use xlink:href="#DejaVuSerif-55" x="194.433594"/>
       <use xlink:href="#DejaVuSerif-34" x="278.710938"/>
       <use xlink:href="#DejaVuSerif-32" x="342.333984"/>
      </g>
     </g>
    </g>
    <g id="xtick_8">
     <g id="line2d_8">
      <g>
       <use xlink:href="#m9bfa2bd0f3" x="255.006019" y="194.4" style="stroke: #000000; stroke-width: 0.8"/>
      </g>
     </g>
     <g id="text_8">
      <!-- AA_U31 -->
      <g transform="translate(236.781889 221.77263) rotate(-45) scale(0.06 -0.06)">
       <use xlink:href="#DejaVuSerif-41"/>
       <use xlink:href="#DejaVuSerif-41" x="72.216797"/>
       <use xlink:href="#DejaVuSerif-5f" x="144.433594"/>
       <use xlink:href="#DejaVuSerif-55" x="194.433594"/>
       <use xlink:href="#DejaVuSerif-33" x="278.710938"/>
       <use xlink:href="#DejaVuSerif-31" x="342.333984"/>
      </g>
     </g>
    </g>
    <g id="xtick_9">
     <g id="line2d_9">
      <g>
       <use xlink:href="#m9bfa2bd0f3" x="281.010032" y="194.4" style="stroke: #000000; stroke-width: 0.8"/>
      </g>
     </g>
     <g id="text_9">
      <!-- AA_U24 -->
      <g transform="translate(262.785902 221.77263) rotate(-45) scale(0.06 -0.06)">
       <use xlink:href="#DejaVuSerif-41"/>
       <use xlink:href="#DejaVuSerif-41" x="72.216797"/>
       <use xlink:href="#DejaVuSerif-5f" x="144.433594"/>
       <use xlink:href="#DejaVuSerif-55" x="194.433594"/>
       <use xlink:href="#DejaVuSerif-32" x="278.710938"/>
       <use xlink:href="#DejaVuSerif-34" x="342.333984"/>
      </g>
     </g>
    </g>
    <g id="xtick_10">
     <g id="line2d_10">
      <g>
       <use xlink:href="#m9bfa2bd0f3" x="307.014045" y="194.4" style="stroke: #000000; stroke-width: 0.8"/>
      </g>
     </g>
     <g id="text_10">
      <!-- AA_U21 -->
      <g transform="translate(288.789915 221.77263) rotate(-45) scale(0.06 -0.06)">
       <use xlink:href="#DejaVuSerif-41"/>
       <use xlink:href="#DejaVuSerif-41" x="72.216797"/>
       <use xlink:href="#DejaVuSerif-5f" x="144.433594"/>
       <use xlink:href="#DejaVuSerif-55" x="194.433594"/>
       <use xlink:href="#DejaVuSerif-32" x="278.710938"/>
       <use xlink:href="#DejaVuSerif-31" x="342.333984"/>
      </g>
     </g>
    </g>
    <g id="xtick_11">
     <g id="line2d_11">
      <g>
       <use xlink:href="#m9bfa2bd0f3" x="333.018058" y="194.4" style="stroke: #000000; stroke-width: 0.8"/>
      </g>
     </g>
     <g id="text_11">
      <!-- AA_U14 -->
      <g transform="translate(314.793928 221.77263) rotate(-45) scale(0.06 -0.06)">
       <use xlink:href="#DejaVuSerif-41"/>
       <use xlink:href="#DejaVuSerif-41" x="72.216797"/>
       <use xlink:href="#DejaVuSerif-5f" x="144.433594"/>
       <use xlink:href="#DejaVuSerif-55" x="194.433594"/>
       <use xlink:href="#DejaVuSerif-31" x="278.710938"/>
       <use xlink:href="#DejaVuSerif-34" x="342.333984"/>
      </g>
     </g>
    </g>
    <g id="xtick_12">
     <g id="line2d_12">
      <g>
       <use xlink:href="#m9bfa2bd0f3" x="359.022071" y="194.4" style="stroke: #000000; stroke-width: 0.8"/>
      </g>
     </g>
     <g id="text_12">
      <!-- AA_U34 -->
      <g transform="translate(340.797941 221.77263) rotate(-45) scale(0.06 -0.06)">
       <use xlink:href="#DejaVuSerif-41"/>
       <use xlink:href="#DejaVuSerif-41" x="72.216797"/>
       <use xlink:href="#DejaVuSerif-5f" x="144.433594"/>
       <use xlink:href="#DejaVuSerif-55" x="194.433594"/>
       <use xlink:href="#DejaVuSerif-33" x="278.710938"/>
       <use xlink:href="#DejaVuSerif-34" x="342.333984"/>
      </g>
     </g>
    </g>
   </g>
   <g id="matplotlib.axis_2">
    <g id="ytick_1">
     <g id="line2d_13">
      <defs>
       <path id="m3f732e3b52" d="M 0 0 
L -3.5 0 
" style="stroke: #000000; stroke-width: 0.8"/>
      </defs>
      <g>
       <use xlink:href="#m3f732e3b52" x="47.52" y="194.4" style="stroke: #000000; stroke-width: 0.8"/>
      </g>
     </g>
     <g id="text_13">
      <!-- 0 -->
      <g transform="translate(36.7025 196.679531) scale(0.06 -0.06)">
       <defs>
        <path id="DejaVuSerif-30" d="M 2034 219 
Q 2513 219 2750 744 
Q 2988 1269 2988 2328 
Q 2988 3391 2750 3916 
Q 2513 4441 2034 4441 
Q 1556 4441 1318 3916 
Q 1081 3391 1081 2328 
Q 1081 1269 1318 744 
Q 1556 219 2034 219 
z
M 2034 -91 
Q 1275 -91 848 546 
Q 422 1184 422 2328 
Q 422 3475 848 4112 
Q 1275 4750 2034 4750 
Q 2797 4750 3222 4112 
Q 3647 3475 3647 2328 
Q 3647 1184 3222 546 
Q 2797 -91 2034 -91 
z
" transform="scale(0.015625)"/>
       </defs>
       <use xlink:href="#DejaVuSerif-30"/>
      </g>
     </g>
    </g>
    <g id="ytick_2">
     <g id="line2d_14">
      <g>
       <use xlink:href="#m3f732e3b52" x="47.52" y="177.749493" style="stroke: #000000; stroke-width: 0.8"/>
      </g>
     </g>
     <g id="text_14">
      <!-- 50 -->
      <g transform="translate(32.885 180.029024) scale(0.06 -0.06)">
       <defs>
        <path id="DejaVuSerif-35" d="M 3219 4666 
L 3219 4153 
L 1081 4153 
L 1081 2816 
Q 1244 2928 1461 2984 
Q 1678 3041 1947 3041 
Q 2703 3041 3140 2622 
Q 3578 2203 3578 1478 
Q 3578 738 3136 323 
Q 2694 -91 1894 -91 
Q 1572 -91 1234 -12 
Q 897 66 544 225 
L 544 1131 
L 897 1131 
Q 925 688 1179 453 
Q 1434 219 1894 219 
Q 2388 219 2653 544 
Q 2919 869 2919 1478 
Q 2919 2084 2655 2407 
Q 2391 2731 1894 2731 
Q 1613 2731 1398 2631 
Q 1184 2531 1019 2322 
L 750 2322 
L 750 4666 
L 3219 4666 
z
" transform="scale(0.015625)"/>
       </defs>
       <use xlink:href="#DejaVuSerif-35"/>
       <use xlink:href="#DejaVuSerif-30" x="63.623047"/>
      </g>
     </g>
    </g>
    <g id="ytick_3">
     <g id="line2d_15">
      <g>
       <use xlink:href="#m3f732e3b52" x="47.52" y="161.098985" style="stroke: #000000; stroke-width: 0.8"/>
      </g>
     </g>
     <g id="text_15">
      <!-- 100 -->
      <g transform="translate(29.0675 163.378516) scale(0.06 -0.06)">
       <use xlink:href="#DejaVuSerif-31"/>
       <use xlink:href="#DejaVuSerif-30" x="63.623047"/>
       <use xlink:href="#DejaVuSerif-30" x="127.246094"/>
      </g>
     </g>
    </g>
    <g id="ytick_4">
     <g id="line2d_16">
      <g>
       <use xlink:href="#m3f732e3b52" x="47.52" y="144.448478" style="stroke: #000000; stroke-width: 0.8"/>
      </g>
     </g>
     <g id="text_16">
      <!-- 150 -->
      <g transform="translate(29.0675 146.728009) scale(0.06 -0.06)">
       <use xlink:href="#DejaVuSerif-31"/>
       <use xlink:href="#DejaVuSerif-35" x="63.623047"/>
       <use xlink:href="#DejaVuSerif-30" x="127.246094"/>
      </g>
     </g>
    </g>
    <g id="ytick_5">
     <g id="line2d_17">
      <g>
       <use xlink:href="#m3f732e3b52" x="47.52" y="127.79797" style="stroke: #000000; stroke-width: 0.8"/>
      </g>
     </g>
     <g id="text_17">
      <!-- 200 -->
      <g transform="translate(29.0675 130.077501) scale(0.06 -0.06)">
       <use xlink:href="#DejaVuSerif-32"/>
       <use xlink:href="#DejaVuSerif-30" x="63.623047"/>
       <use xlink:href="#DejaVuSerif-30" x="127.246094"/>
      </g>
     </g>
    </g>
    <g id="ytick_6">
     <g id="line2d_18">
      <g>
       <use xlink:href="#m3f732e3b52" x="47.52" y="111.147463" style="stroke: #000000; stroke-width: 0.8"/>
      </g>
     </g>
     <g id="text_18">
      <!-- 250 -->
      <g transform="translate(29.0675 113.426994) scale(0.06 -0.06)">
       <use xlink:href="#DejaVuSerif-32"/>
       <use xlink:href="#DejaVuSerif-35" x="63.623047"/>
       <use xlink:href="#DejaVuSerif-30" x="127.246094"/>
      </g>
     </g>
    </g>
    <g id="ytick_7">
     <g id="line2d_19">
      <g>
       <use xlink:href="#m3f732e3b52" x="47.52" y="94.496955" style="stroke: #000000; stroke-width: 0.8"/>
      </g>
     </g>
     <g id="text_19">
      <!-- 300 -->
      <g transform="translate(29.0675 96.776487) scale(0.06 -0.06)">
       <use xlink:href="#DejaVuSerif-33"/>
       <use xlink:href="#DejaVuSerif-30" x="63.623047"/>
       <use xlink:href="#DejaVuSerif-30" x="127.246094"/>
      </g>
     </g>
    </g>
    <g id="ytick_8">
     <g id="line2d_20">
      <g>
       <use xlink:href="#m3f732e3b52" x="47.52" y="77.846448" style="stroke: #000000; stroke-width: 0.8"/>
      </g>
     </g>
     <g id="text_20">
      <!-- 350 -->
      <g transform="translate(29.0675 80.125979) scale(0.06 -0.06)">
       <use xlink:href="#DejaVuSerif-33"/>
       <use xlink:href="#DejaVuSerif-35" x="63.623047"/>
       <use xlink:href="#DejaVuSerif-30" x="127.246094"/>
      </g>
     </g>
    </g>
    <g id="ytick_9">
     <g id="line2d_21">
      <g>
       <use xlink:href="#m3f732e3b52" x="47.52" y="61.19594" style="stroke: #000000; stroke-width: 0.8"/>
      </g>
     </g>
     <g id="text_21">
      <!-- 400 -->
      <g transform="translate(29.0675 63.475472) scale(0.06 -0.06)">
       <use xlink:href="#DejaVuSerif-34"/>
       <use xlink:href="#DejaVuSerif-30" x="63.623047"/>
       <use xlink:href="#DejaVuSerif-30" x="127.246094"/>
      </g>
     </g>
    </g>
    <g id="text_22">
     <!-- Person trips / period -->
     <g transform="translate(23.611719 156.830656) rotate(-90) scale(0.07 -0.07)">
      <defs>
       <path id="DejaVuSerif-50" d="M 1581 2375 
L 2406 2375 
Q 2872 2375 3115 2626 
Q 3359 2878 3359 3353 
Q 3359 3831 3115 4081 
Q 2872 4331 2406 4331 
L 1581 4331 
L 1581 2375 
z
M 353 0 
L 353 331 
L 947 331 
L 947 4331 
L 353 4331 
L 353 4666 
L 2559 4666 
Q 3259 4666 3668 4311 
Q 4078 3956 4078 3353 
Q 4078 2753 3668 2397 
Q 3259 2041 2559 2041 
L 1581 2041 
L 1581 331 
L 2303 331 
L 2303 0 
L 353 0 
z
" transform="scale(0.015625)"/>
       <path id="DejaVuSerif-65" d="M 3469 1600 
L 991 1600 
L 991 1575 
Q 991 903 1244 561 
Q 1497 219 1991 219 
Q 2369 219 2611 417 
Q 2853 616 2950 1006 
L 3413 1006 
Q 3275 459 2904 184 
Q 2534 -91 1931 -91 
Q 1203 -91 761 389 
Q 319 869 319 1663 
Q 319 2450 753 2931 
Q 1188 3413 1894 3413 
Q 2647 3413 3050 2948 
Q 3453 2484 3469 1600 
z
M 2791 1931 
Q 2772 2513 2545 2808 
Q 2319 3103 1894 3103 
Q 1497 3103 1269 2806 
Q 1041 2509 991 1931 
L 2791 1931 
z
" transform="scale(0.015625)"/>
       <path id="DejaVuSerif-72" d="M 3059 3328 
L 3059 2497 
L 2728 2497 
Q 2713 2744 2591 2866 
Q 2469 2988 2234 2988 
Q 1809 2988 1582 2694 
Q 1356 2400 1356 1850 
L 1356 331 
L 2022 331 
L 2022 0 
L 263 0 
L 263 331 
L 781 331 
L 781 2994 
L 231 2994 
L 231 3322 
L 1356 3322 
L 1356 2731 
Q 1525 3078 1790 3245 
Q 2056 3413 2438 3413 
Q 2578 3413 2733 3391 
Q 2888 3369 3059 3328 
z
" transform="scale(0.015625)"/>
       <path id="DejaVuSerif-73" d="M 359 184 
L 359 959 
L 691 959 
Q 703 588 923 403 
Q 1144 219 1575 219 
Q 1963 219 2166 364 
Q 2369 509 2369 788 
Q 2369 1006 2220 1140 
Q 2072 1275 1594 1428 
L 1178 1569 
Q 750 1706 558 1912 
Q 366 2119 366 2438 
Q 366 2894 700 3153 
Q 1034 3413 1625 3413 
Q 1888 3413 2178 3344 
Q 2469 3275 2778 3144 
L 2778 2419 
L 2447 2419 
Q 2434 2741 2221 2922 
Q 2009 3103 1644 3103 
Q 1281 3103 1095 2975 
Q 909 2847 909 2591 
Q 909 2381 1050 2254 
Q 1191 2128 1613 1997 
L 2069 1856 
Q 2541 1709 2748 1489 
Q 2956 1269 2956 922 
Q 2956 450 2595 179 
Q 2234 -91 1600 -91 
Q 1278 -91 972 -22 
Q 666 47 359 184 
z
" transform="scale(0.015625)"/>
       <path id="DejaVuSerif-6f" d="M 1925 219 
Q 2388 219 2623 584 
Q 2859 950 2859 1663 
Q 2859 2375 2623 2739 
Q 2388 3103 1925 3103 
Q 1463 3103 1227 2739 
Q 991 2375 991 1663 
Q 991 950 1228 584 
Q 1466 219 1925 219 
z
M 1925 -91 
Q 1200 -91 759 389 
Q 319 869 319 1663 
Q 319 2456 758 2934 
Q 1197 3413 1925 3413 
Q 2653 3413 3092 2934 
Q 3531 2456 3531 1663 
Q 3531 869 3092 389 
Q 2653 -91 1925 -91 
z
" transform="scale(0.015625)"/>
       <path id="DejaVuSerif-6e" d="M 263 0 
L 263 331 
L 781 331 
L 781 2988 
L 231 2988 
L 231 3322 
L 1356 3322 
L 1356 2731 
Q 1516 3069 1770 3241 
Q 2025 3413 2363 3413 
Q 2913 3413 3172 3097 
Q 3431 2781 3431 2113 
L 3431 331 
L 3944 331 
L 3944 0 
L 2356 0 
L 2356 331 
L 2853 331 
L 2853 1931 
Q 2853 2541 2703 2767 
Q 2553 2994 2175 2994 
Q 1775 2994 1565 2701 
Q 1356 2409 1356 1850 
L 1356 331 
L 1856 331 
L 1856 0 
L 263 0 
z
" transform="scale(0.015625)"/>
       <path id="DejaVuSerif-20" transform="scale(0.015625)"/>
       <path id="DejaVuSerif-74" d="M 691 2988 
L 184 2988 
L 184 3322 
L 691 3322 
L 691 4353 
L 1269 4353 
L 1269 3322 
L 2350 3322 
L 2350 2988 
L 1269 2988 
L 1269 878 
Q 1269 456 1350 337 
Q 1431 219 1650 219 
Q 1875 219 1978 351 
Q 2081 484 2088 781 
L 2522 781 
Q 2497 328 2275 118 
Q 2053 -91 1600 -91 
Q 1103 -91 897 129 
Q 691 350 691 878 
L 691 2988 
z
" transform="scale(0.015625)"/>
       <path id="DejaVuSerif-69" d="M 622 4353 
Q 622 4497 726 4603 
Q 831 4709 978 4709 
Q 1122 4709 1226 4603 
Q 1331 4497 1331 4353 
Q 1331 4206 1228 4103 
Q 1125 4000 978 4000 
Q 831 4000 726 4103 
Q 622 4206 622 4353 
z
M 1356 331 
L 1900 331 
L 1900 0 
L 231 0 
L 231 331 
L 781 331 
L 781 2988 
L 231 2988 
L 231 3322 
L 1356 3322 
L 1356 331 
z
" transform="scale(0.015625)"/>
       <path id="DejaVuSerif-70" d="M 1313 1825 
L 1313 1497 
Q 1313 897 1542 583 
Q 1772 269 2209 269 
Q 2650 269 2876 622 
Q 3103 975 3103 1663 
Q 3103 2353 2876 2703 
Q 2650 3053 2209 3053 
Q 1772 3053 1542 2737 
Q 1313 2422 1313 1825 
z
M 738 2988 
L 184 2988 
L 184 3322 
L 1313 3322 
L 1313 2803 
Q 1481 3116 1742 3264 
Q 2003 3413 2388 3413 
Q 3000 3413 3387 2928 
Q 3775 2444 3775 1663 
Q 3775 881 3387 395 
Q 3000 -91 2388 -91 
Q 2003 -91 1742 57 
Q 1481 206 1313 519 
L 1313 -997 
L 1856 -997 
L 1856 -1331 
L 184 -1331 
L 184 -997 
L 738 -997 
L 738 2988 
z
" transform="scale(0.015625)"/>
       <path id="DejaVuSerif-2f" d="M 1656 4666 
L 2156 4666 
L 500 -594 
L 0 -594 
L 1656 4666 
z
" transform="scale(0.015625)"/>
       <path id="DejaVuSerif-64" d="M 3359 331 
L 3909 331 
L 3909 0 
L 2784 0 
L 2784 519 
Q 2616 206 2355 57 
Q 2094 -91 1709 -91 
Q 1097 -91 708 395 
Q 319 881 319 1663 
Q 319 2444 706 2928 
Q 1094 3413 1709 3413 
Q 2094 3413 2355 3264 
Q 2616 3116 2784 2803 
L 2784 4531 
L 2241 4531 
L 2241 4863 
L 3359 4863 
L 3359 331 
z
M 2784 1497 
L 2784 1825 
Q 2784 2422 2554 2737 
Q 2325 3053 1888 3053 
Q 1444 3053 1217 2703 
Q 991 2353 991 1663 
Q 991 975 1217 622 
Q 1444 269 1888 269 
Q 2325 269 2554 583 
Q 2784 897 2784 1497 
z
" transform="scale(0.015625)"/>
      </defs>
      <use xlink:href="#DejaVuSerif-50"/>
      <use xlink:href="#DejaVuSerif-65" x="62.785156"/>
      <use xlink:href="#DejaVuSerif-72" x="121.964844"/>
      <use xlink:href="#DejaVuSerif-73" x="169.767578"/>
      <use xlink:href="#DejaVuSerif-6f" x="221.085938"/>
      <use xlink:href="#DejaVuSerif-6e" x="281.291016"/>
      <use xlink:href="#DejaVuSerif-20" x="345.695312"/>
      <use xlink:href="#DejaVuSerif-74" x="377.482422"/>
      <use xlink:href="#DejaVuSerif-72" x="417.667969"/>
      <use xlink:href="#DejaVuSerif-69" x="465.470703"/>
      <use xlink:href="#DejaVuSerif-70" x="497.453125"/>
      <use xlink:href="#DejaVuSerif-73" x="561.466797"/>
      <use xlink:href="#DejaVuSerif-20" x="612.785156"/>
      <use xlink:href="#DejaVuSerif-2f" x="644.572266"/>
      <use xlink:href="#DejaVuSerif-20" x="678.263672"/>
      <use xlink:href="#DejaVuSerif-70" x="710.050781"/>
      <use xlink:href="#DejaVuSerif-65" x="774.064453"/>
      <use xlink:href="#DejaVuSerif-72" x="833.244141"/>
      <use xlink:href="#DejaVuSerif-69" x="881.046875"/>
      <use xlink:href="#DejaVuSerif-6f" x="913.029297"/>
      <use xlink:href="#DejaVuSerif-64" x="973.234375"/>
     </g>
    </g>
   </g>
   <g id="patch_27">
    <path d="M 47.52 194.4 
L 47.52 46.656 
" style="fill: none; stroke: #000000; stroke-width: 0.8; stroke-linejoin: miter; stroke-linecap: square"/>
   </g>
   <g id="patch_28">
    <path d="M 47.52 194.4 
L 384.48 194.4 
" style="fill: none; stroke: #000000; stroke-width: 0.8; stroke-linejoin: miter; stroke-linecap: square"/>
   </g>
   <g id="legend_1">
    <g id="patch_29">
     <path d="M 327.690938 69.06975 
L 380.28 69.06975 
Q 381.48 69.06975 381.48 67.86975 
L 381.48 50.856 
Q 381.48 49.656 380.28 49.656 
L 327.690938 49.656 
Q 326.490938 49.656 326.490938 50.856 
L 326.490938 67.86975 
Q 326.490938 69.06975 327.690938 69.06975 
z
" style="fill: #ffffff; opacity: 0.8; stroke: #cccccc; stroke-linejoin: miter"/>
    </g>
    <g id="patch_30">
     <path d="M 328.890938 56.615062 
L 340.890938 56.615062 
L 340.890938 52.415062 
L 328.890938 52.415062 
z
" style="fill: #17364a"/>
    </g>
    <g id="text_23">
     <!-- Production -->
     <g transform="translate(345.690938 56.615062) scale(0.06 -0.06)">
      <defs>
       <path id="DejaVuSerif-75" d="M 2266 3322 
L 3341 3322 
L 3341 331 
L 3884 331 
L 3884 0 
L 2766 0 
L 2766 588 
Q 2606 256 2353 82 
Q 2100 -91 1766 -91 
Q 1213 -91 952 223 
Q 691 538 691 1209 
L 691 2988 
L 172 2988 
L 172 3322 
L 1269 3322 
L 1269 1388 
Q 1269 781 1417 556 
Q 1566 331 1947 331 
Q 2347 331 2556 625 
Q 2766 919 2766 1478 
L 2766 2988 
L 2266 2988 
L 2266 3322 
z
" transform="scale(0.015625)"/>
       <path id="DejaVuSerif-63" d="M 3291 997 
Q 3169 466 2822 187 
Q 2475 -91 1925 -91 
Q 1200 -91 759 389 
Q 319 869 319 1663 
Q 319 2459 759 2936 
Q 1200 3413 1925 3413 
Q 2241 3413 2553 3339 
Q 2866 3266 3181 3116 
L 3181 2266 
L 2847 2266 
Q 2781 2703 2561 2903 
Q 2341 3103 1931 3103 
Q 1466 3103 1228 2742 
Q 991 2381 991 1663 
Q 991 944 1227 581 
Q 1463 219 1931 219 
Q 2303 219 2525 412 
Q 2747 606 2828 997 
L 3291 997 
z
" transform="scale(0.015625)"/>
      </defs>
      <use xlink:href="#DejaVuSerif-50"/>
      <use xlink:href="#DejaVuSerif-72" x="67.285156"/>
      <use xlink:href="#DejaVuSerif-6f" x="115.087891"/>
      <use xlink:href="#DejaVuSerif-64" x="175.292969"/>
      <use xlink:href="#DejaVuSerif-75" x="239.306641"/>
      <use xlink:href="#DejaVuSerif-63" x="303.710938"/>
      <use xlink:href="#DejaVuSerif-74" x="359.716797"/>
      <use xlink:href="#DejaVuSerif-69" x="399.902344"/>
      <use xlink:href="#DejaVuSerif-6f" x="431.884766"/>
      <use xlink:href="#DejaVuSerif-6e" x="492.089844"/>
     </g>
    </g>
    <g id="patch_31">
     <path d="M 328.890938 65.421937 
L 340.890938 65.421937 
L 340.890938 61.221937 
L 328.890938 61.221937 
z
" style="fill: #087f8c"/>
    </g>
    <g id="text_24">
     <!-- Attraction -->
     <g transform="translate(345.690938 65.421937) scale(0.06 -0.06)">
      <defs>
       <path id="DejaVuSerif-61" d="M 2547 1044 
L 2547 1747 
L 1806 1747 
Q 1378 1747 1168 1562 
Q 959 1378 959 997 
Q 959 650 1171 447 
Q 1384 244 1747 244 
Q 2106 244 2326 466 
Q 2547 688 2547 1044 
z
M 3122 2075 
L 3122 331 
L 3634 331 
L 3634 0 
L 2547 0 
L 2547 359 
Q 2356 128 2106 18 
Q 1856 -91 1522 -91 
Q 969 -91 644 203 
Q 319 497 319 997 
Q 319 1513 691 1797 
Q 1063 2081 1741 2081 
L 2547 2081 
L 2547 2309 
Q 2547 2688 2317 2895 
Q 2088 3103 1672 3103 
Q 1328 3103 1125 2947 
Q 922 2791 872 2484 
L 575 2484 
L 575 3156 
Q 875 3284 1158 3348 
Q 1441 3413 1709 3413 
Q 2400 3413 2761 3070 
Q 3122 2728 3122 2075 
z
" transform="scale(0.015625)"/>
      </defs>
      <use xlink:href="#DejaVuSerif-41"/>
      <use xlink:href="#DejaVuSerif-74" x="70.466797"/>
      <use xlink:href="#DejaVuSerif-74" x="110.652344"/>
      <use xlink:href="#DejaVuSerif-72" x="150.837891"/>
      <use xlink:href="#DejaVuSerif-61" x="198.640625"/>
      <use xlink:href="#DejaVuSerif-63" x="258.259766"/>
      <use xlink:href="#DejaVuSerif-74" x="314.265625"/>
      <use xlink:href="#DejaVuSerif-69" x="354.451172"/>
      <use xlink:href="#DejaVuSerif-6f" x="386.433594"/>
      <use xlink:href="#DejaVuSerif-6e" x="446.638672"/>
     </g>
    </g>
   </g>
  </g>
  <g id="text_25">
   <!-- 01 / Trip generation -->
   <g style="fill: #17364a" transform="translate(30.24 15.552) scale(0.12 -0.12)">
    <defs>
     <path id="DejaVuSerif-Bold-30" d="M 2228 275 
Q 2603 275 2742 615 
Q 2881 956 2881 2328 
Q 2881 3691 2742 4037 
Q 2603 4384 2228 4384 
Q 1853 4384 1714 4043 
Q 1575 3703 1575 2328 
Q 1575 956 1714 615 
Q 1853 275 2228 275 
z
M 2228 -91 
Q 1294 -91 797 532 
Q 300 1156 300 2328 
Q 300 3500 797 4125 
Q 1294 4750 2228 4750 
Q 3159 4750 3656 4125 
Q 4153 3500 4153 2328 
Q 4153 1156 3656 532 
Q 3159 -91 2228 -91 
z
" transform="scale(0.015625)"/>
     <path id="DejaVuSerif-Bold-31" d="M 878 0 
L 878 378 
L 1753 378 
L 1753 4153 
L 781 3578 
L 781 4044 
L 1953 4750 
L 2938 4750 
L 2938 378 
L 3816 378 
L 3816 0 
L 878 0 
z
" transform="scale(0.015625)"/>
     <path id="DejaVuSerif-Bold-20" transform="scale(0.015625)"/>
     <path id="DejaVuSerif-Bold-2f" d="M 1644 4666 
L 2338 4666 
L 691 -594 
L 0 -594 
L 1644 4666 
z
" transform="scale(0.015625)"/>
     <path id="DejaVuSerif-Bold-54" d="M 1159 0 
L 1159 378 
L 1778 378 
L 1778 4238 
L 500 4238 
L 500 3500 
L 72 3500 
L 72 4666 
L 4697 4666 
L 4697 3500 
L 4275 3500 
L 4275 4238 
L 2988 4238 
L 2988 378 
L 3609 378 
L 3609 0 
L 1159 0 
z
" transform="scale(0.015625)"/>
     <path id="DejaVuSerif-Bold-72" d="M 3438 3359 
L 3438 2369 
L 3084 2369 
Q 3066 2634 2941 2764 
Q 2816 2894 2578 2894 
Q 2216 2894 2006 2575 
Q 1797 2256 1797 1691 
L 1797 378 
L 2400 378 
L 2400 0 
L 219 0 
L 219 378 
L 691 378 
L 691 2944 
L 184 2944 
L 184 3322 
L 1797 3322 
L 1797 2731 
Q 1959 3078 2226 3245 
Q 2494 3413 2881 3413 
Q 2978 3413 3117 3398 
Q 3256 3384 3438 3359 
z
" transform="scale(0.015625)"/>
     <path id="DejaVuSerif-Bold-69" d="M 588 4263 
Q 588 4516 763 4689 
Q 938 4863 1191 4863 
Q 1438 4863 1611 4689 
Q 1784 4516 1784 4263 
Q 1784 4016 1611 3842 
Q 1438 3669 1191 3669 
Q 938 3669 763 3841 
Q 588 4013 588 4263 
z
M 1797 378 
L 2272 378 
L 2272 0 
L 219 0 
L 219 378 
L 691 378 
L 691 2944 
L 219 2944 
L 219 3322 
L 1797 3322 
L 1797 378 
z
" transform="scale(0.015625)"/>
     <path id="DejaVuSerif-Bold-70" d="M 1728 1825 
L 1728 1497 
Q 1728 916 1876 656 
Q 2025 397 2356 397 
Q 2697 397 2836 672 
Q 2975 947 2975 1663 
Q 2975 2378 2836 2651 
Q 2697 2925 2356 2925 
Q 2025 2925 1876 2665 
Q 1728 2406 1728 1825 
z
M 622 2944 
L 147 2944 
L 147 3322 
L 1728 3322 
L 1728 2900 
Q 1869 3159 2106 3286 
Q 2344 3413 2694 3413 
Q 3403 3413 3811 2945 
Q 4219 2478 4219 1663 
Q 4219 847 3811 378 
Q 3403 -91 2694 -91 
Q 2344 -91 2106 36 
Q 1869 163 1728 422 
L 1728 -953 
L 2241 -953 
L 2241 -1331 
L 147 -1331 
L 147 -953 
L 622 -953 
L 622 2944 
z
" transform="scale(0.015625)"/>
     <path id="DejaVuSerif-Bold-67" d="M 3853 2944 
L 3853 44 
Q 3853 -656 3354 -1039 
Q 2856 -1422 1947 -1422 
Q 1616 -1422 1275 -1370 
Q 934 -1319 575 -1216 
L 575 -422 
L 928 -422 
Q 975 -750 1192 -909 
Q 1409 -1069 1813 -1069 
Q 2325 -1069 2536 -823 
Q 2747 -578 2747 44 
L 2747 422 
Q 2606 163 2367 36 
Q 2128 -91 1778 -91 
Q 1072 -91 667 378 
Q 263 847 263 1663 
Q 263 2481 667 2947 
Q 1072 3413 1778 3413 
Q 2128 3413 2367 3286 
Q 2606 3159 2747 2900 
L 2747 3322 
L 4325 3322 
L 4325 2944 
L 3853 2944 
z
M 2747 1825 
Q 2747 2406 2597 2665 
Q 2447 2925 2119 2925 
Q 1775 2925 1636 2651 
Q 1497 2378 1497 1663 
Q 1497 947 1637 672 
Q 1778 397 2119 397 
Q 2447 397 2597 656 
Q 2747 916 2747 1497 
L 2747 1825 
z
" transform="scale(0.015625)"/>
     <path id="DejaVuSerif-Bold-65" d="M 2566 1875 
Q 2566 2531 2444 2795 
Q 2322 3059 2028 3059 
Q 1744 3059 1620 2800 
Q 1497 2541 1497 1931 
L 1497 1875 
L 2566 1875 
z
M 3781 1503 
L 1497 1503 
L 1497 1478 
Q 1497 834 1690 548 
Q 1884 263 2316 263 
Q 2675 263 2897 453 
Q 3119 644 3181 1006 
L 3700 1006 
Q 3566 441 3166 175 
Q 2766 -91 2047 -91 
Q 1184 -91 723 364 
Q 263 819 263 1663 
Q 263 2488 734 2950 
Q 1206 3413 2047 3413 
Q 2872 3413 3312 2927 
Q 3753 2441 3781 1503 
z
" transform="scale(0.015625)"/>
     <path id="DejaVuSerif-Bold-6e" d="M 219 0 
L 219 378 
L 691 378 
L 691 2944 
L 219 2944 
L 219 3322 
L 1797 3322 
L 1797 2853 
Q 1997 3150 2253 3281 
Q 2509 3413 2900 3413 
Q 3459 3413 3745 3083 
Q 4031 2753 4031 2113 
L 4031 378 
L 4506 378 
L 4506 0 
L 2522 0 
L 2522 378 
L 2925 378 
L 2925 2144 
Q 2925 2566 2817 2730 
Q 2709 2894 2444 2894 
Q 2109 2894 1953 2648 
Q 1797 2403 1797 1869 
L 1797 378 
L 2203 378 
L 2203 0 
L 219 0 
z
" transform="scale(0.015625)"/>
     <path id="DejaVuSerif-Bold-61" d="M 3525 2041 
L 3525 378 
L 4000 378 
L 4000 0 
L 2419 0 
L 2419 422 
Q 2200 159 1931 34 
Q 1663 -91 1319 -91 
Q 809 -91 536 182 
Q 263 456 263 966 
Q 263 1525 655 1803 
Q 1047 2081 1838 2081 
L 2419 2081 
L 2419 2278 
Q 2419 2681 2228 2873 
Q 2038 3066 1638 3066 
Q 1306 3066 1126 2930 
Q 947 2794 872 2484 
L 519 2484 
L 519 3200 
Q 816 3306 1134 3359 
Q 1453 3413 1806 3413 
Q 2697 3413 3111 3081 
Q 3525 2750 3525 2041 
z
M 2419 1044 
L 2419 1709 
L 2003 1709 
Q 1694 1709 1528 1540 
Q 1363 1372 1363 1056 
Q 1363 741 1483 584 
Q 1603 428 1850 428 
Q 2106 428 2262 597 
Q 2419 766 2419 1044 
z
" transform="scale(0.015625)"/>
     <path id="DejaVuSerif-Bold-74" d="M 634 2944 
L 153 2944 
L 153 3322 
L 634 3322 
L 634 4353 
L 1741 4353 
L 1741 3322 
L 2663 3322 
L 2663 2944 
L 1741 2944 
L 1741 909 
Q 1741 475 1809 369 
Q 1878 263 2059 263 
Q 2259 263 2356 397 
Q 2453 531 2459 813 
L 2925 813 
Q 2897 313 2651 111 
Q 2406 -91 1806 -91 
Q 1122 -91 878 123 
Q 634 338 634 909 
L 634 2944 
z
" transform="scale(0.015625)"/>
     <path id="DejaVuSerif-Bold-6f" d="M 2138 263 
Q 2488 263 2630 563 
Q 2772 863 2772 1663 
Q 2772 2463 2631 2761 
Q 2491 3059 2138 3059 
Q 1784 3059 1640 2757 
Q 1497 2456 1497 1663 
Q 1497 869 1640 566 
Q 1784 263 2138 263 
z
M 2138 -91 
Q 1259 -91 761 376 
Q 263 844 263 1663 
Q 263 2484 761 2948 
Q 1259 3413 2138 3413 
Q 3019 3413 3516 2948 
Q 4013 2484 4013 1663 
Q 4013 844 3514 376 
Q 3016 -91 2138 -91 
z
" transform="scale(0.015625)"/>
    </defs>
    <use xlink:href="#DejaVuSerif-Bold-30"/>
    <use xlink:href="#DejaVuSerif-Bold-31" x="69.580078"/>
    <use xlink:href="#DejaVuSerif-Bold-20" x="139.160156"/>
    <use xlink:href="#DejaVuSerif-Bold-2f" x="173.974609"/>
    <use xlink:href="#DejaVuSerif-Bold-20" x="210.498047"/>
    <use xlink:href="#DejaVuSerif-Bold-54" x="245.3125"/>
    <use xlink:href="#DejaVuSerif-Bold-72" x="312.476562"/>
    <use xlink:href="#DejaVuSerif-Bold-69" x="365.162109"/>
    <use xlink:href="#DejaVuSerif-Bold-70" x="403.150391"/>
    <use xlink:href="#DejaVuSerif-Bold-20" x="473.072266"/>
    <use xlink:href="#DejaVuSerif-Bold-67" x="507.886719"/>
    <use xlink:href="#DejaVuSerif-Bold-65" x="577.808594"/>
    <use xlink:href="#DejaVuSerif-Bold-6e" x="641.431641"/>
    <use xlink:href="#DejaVuSerif-Bold-65" x="714.136719"/>
    <use xlink:href="#DejaVuSerif-Bold-72" x="777.759766"/>
    <use xlink:href="#DejaVuSerif-Bold-61" x="830.445312"/>
    <use xlink:href="#DejaVuSerif-Bold-74" x="895.240234"/>
    <use xlink:href="#DejaVuSerif-Bold-69" x="941.431641"/>
    <use xlink:href="#DejaVuSerif-Bold-6f" x="979.419922"/>
    <use xlink:href="#DejaVuSerif-Bold-6e" x="1046.119141"/>
   </g>
  </g>
  <g id="text_26">
   <!-- Ann Arbor -->
   <g style="fill: #087f8c" transform="translate(357.148281 15.552) scale(0.085 -0.085)">
    <defs>
     <path id="DejaVuSerif-62" d="M 738 331 
L 738 4531 
L 184 4531 
L 184 4863 
L 1313 4863 
L 1313 2803 
Q 1481 3116 1742 3264 
Q 2003 3413 2388 3413 
Q 3000 3413 3387 2928 
Q 3775 2444 3775 1663 
Q 3775 881 3387 395 
Q 3000 -91 2388 -91 
Q 2003 -91 1742 57 
Q 1481 206 1313 519 
L 1313 0 
L 184 0 
L 184 331 
L 738 331 
z
M 1313 1497 
Q 1313 897 1542 583 
Q 1772 269 2209 269 
Q 2650 269 2876 622 
Q 3103 975 3103 1663 
Q 3103 2353 2876 2703 
Q 2650 3053 2209 3053 
Q 1772 3053 1542 2737 
Q 1313 2422 1313 1825 
L 1313 1497 
z
" transform="scale(0.015625)"/>
    </defs>
    <use xlink:href="#DejaVuSerif-41"/>
    <use xlink:href="#DejaVuSerif-6e" x="72.216797"/>
    <use xlink:href="#DejaVuSerif-6e" x="136.621094"/>
    <use xlink:href="#DejaVuSerif-20" x="201.025391"/>
    <use xlink:href="#DejaVuSerif-41" x="232.8125"/>
    <use xlink:href="#DejaVuSerif-72" x="305.029297"/>
    <use xlink:href="#DejaVuSerif-62" x="352.832031"/>
    <use xlink:href="#DejaVuSerif-6f" x="416.845703"/>
    <use xlink:href="#DejaVuSerif-72" x="477.050781"/>
   </g>
  </g>
  <g id="text_27">
   <!-- Central Ann Arbor urban district · 19.633 km² -->
   <g style="fill: #53697a" transform="translate(30.24 244.944) scale(0.074 -0.074)">
    <defs>
     <path id="DejaVuSerif-43" d="M 4513 1234 
Q 4306 581 3820 245 
Q 3334 -91 2591 -91 
Q 2134 -91 1743 65 
Q 1353 222 1050 525 
Q 700 875 529 1320 
Q 359 1766 359 2328 
Q 359 3416 987 4083 
Q 1616 4750 2644 4750 
Q 3025 4750 3456 4650 
Q 3888 4550 4384 4347 
L 4384 3272 
L 4031 3272 
Q 3916 3859 3567 4137 
Q 3219 4416 2591 4416 
Q 1844 4416 1459 3886 
Q 1075 3356 1075 2328 
Q 1075 1303 1459 773 
Q 1844 244 2591 244 
Q 3113 244 3450 492 
Q 3788 741 3938 1234 
L 4513 1234 
z
" transform="scale(0.015625)"/>
     <path id="DejaVuSerif-6c" d="M 1313 331 
L 1856 331 
L 1856 0 
L 184 0 
L 184 331 
L 738 331 
L 738 4531 
L 184 4531 
L 184 4863 
L 1313 4863 
L 1313 331 
z
" transform="scale(0.015625)"/>
     <path id="DejaVuSerif-b7" d="M 594 2222 
Q 594 2397 714 2517 
Q 834 2638 1013 2638 
Q 1184 2638 1306 2516 
Q 1428 2394 1428 2222 
Q 1428 2047 1306 1926 
Q 1184 1806 1013 1806 
Q 834 1806 714 1925 
Q 594 2044 594 2222 
z
" transform="scale(0.015625)"/>
     <path id="DejaVuSerif-39" d="M 2994 2091 
Q 2784 1856 2512 1740 
Q 2241 1625 1900 1625 
Q 1206 1625 804 2044 
Q 403 2463 403 3188 
Q 403 3897 839 4323 
Q 1275 4750 2003 4750 
Q 2794 4750 3217 4161 
Q 3641 3572 3641 2478 
Q 3641 1253 3137 581 
Q 2634 -91 1722 -91 
Q 1475 -91 1203 -44 
Q 931 3 647 97 
L 647 872 
L 997 872 
Q 1038 556 1241 387 
Q 1444 219 1784 219 
Q 2391 219 2687 676 
Q 2984 1134 2994 2091 
z
M 1978 4441 
Q 1534 4441 1298 4117 
Q 1063 3794 1063 3188 
Q 1063 2581 1298 2256 
Q 1534 1931 1978 1931 
Q 2422 1931 2658 2245 
Q 2894 2559 2894 3150 
Q 2894 3772 2656 4106 
Q 2419 4441 1978 4441 
z
" transform="scale(0.015625)"/>
     <path id="DejaVuSerif-2e" d="M 603 325 
Q 603 500 722 622 
Q 841 744 1019 744 
Q 1191 744 1312 622 
Q 1434 500 1434 325 
Q 1434 153 1312 31 
Q 1191 -91 1019 -91 
Q 841 -91 722 29 
Q 603 150 603 325 
z
" transform="scale(0.015625)"/>
     <path id="DejaVuSerif-36" d="M 2094 219 
Q 2534 219 2771 542 
Q 3009 866 3009 1472 
Q 3009 2078 2771 2401 
Q 2534 2725 2094 2725 
Q 1647 2725 1412 2412 
Q 1178 2100 1178 1509 
Q 1178 888 1415 553 
Q 1653 219 2094 219 
z
M 1075 2569 
Q 1288 2803 1556 2918 
Q 1825 3034 2163 3034 
Q 2859 3034 3264 2615 
Q 3669 2197 3669 1472 
Q 3669 763 3233 336 
Q 2797 -91 2069 -91 
Q 1278 -91 853 498 
Q 428 1088 428 2181 
Q 428 3406 931 4078 
Q 1434 4750 2350 4750 
Q 2597 4750 2869 4703 
Q 3141 4656 3425 4563 
L 3425 3794 
L 3072 3794 
Q 3034 4109 2831 4275 
Q 2628 4441 2284 4441 
Q 1678 4441 1381 3981 
Q 1084 3522 1075 2569 
z
" transform="scale(0.015625)"/>
     <path id="DejaVuSerif-6b" d="M 1831 0 
L 219 0 
L 219 331 
L 738 331 
L 738 4531 
L 184 4531 
L 184 4863 
L 1313 4863 
L 1313 1697 
L 2713 2988 
L 2234 2988 
L 2234 3322 
L 3738 3322 
L 3738 2988 
L 3169 2988 
L 2181 2075 
L 3444 331 
L 3922 331 
L 3922 0 
L 2284 0 
L 2284 331 
L 2759 331 
L 1766 1697 
L 1313 1275 
L 1313 331 
L 1831 331 
L 1831 0 
z
" transform="scale(0.015625)"/>
     <path id="DejaVuSerif-6d" d="M 3316 2675 
Q 3481 3041 3739 3227 
Q 3997 3413 4341 3413 
Q 4863 3413 5119 3089 
Q 5375 2766 5375 2113 
L 5375 331 
L 5894 331 
L 5894 0 
L 4300 0 
L 4300 331 
L 4800 331 
L 4800 2047 
Q 4800 2556 4650 2772 
Q 4500 2988 4153 2988 
Q 3769 2988 3567 2697 
Q 3366 2406 3366 1850 
L 3366 331 
L 3866 331 
L 3866 0 
L 2291 0 
L 2291 331 
L 2791 331 
L 2791 2069 
Q 2791 2566 2641 2777 
Q 2491 2988 2144 2988 
Q 1759 2988 1557 2697 
Q 1356 2406 1356 1850 
L 1356 331 
L 1856 331 
L 1856 0 
L 263 0 
L 263 331 
L 781 331 
L 781 2994 
L 231 2994 
L 231 3322 
L 1356 3322 
L 1356 2731 
Q 1516 3063 1762 3238 
Q 2009 3413 2322 3413 
Q 2709 3413 2968 3220 
Q 3228 3028 3316 2675 
z
" transform="scale(0.015625)"/>
     <path id="DejaVuSerif-b2" d="M 531 4050 
L 313 4050 
L 313 4544 
Q 519 4644 737 4697 
Q 956 4750 1172 4750 
Q 1603 4750 1870 4544 
Q 2138 4338 2138 4013 
Q 2138 3631 1531 3088 
L 1472 3034 
L 728 2363 
L 1931 2363 
L 1931 2700 
L 2163 2700 
L 2163 2088 
L 281 2088 
L 281 2322 
L 1172 3116 
Q 1441 3356 1556 3547 
Q 1672 3738 1672 3944 
Q 1672 4209 1520 4364 
Q 1369 4519 1106 4519 
Q 863 4519 716 4400 
Q 569 4281 531 4050 
z
" transform="scale(0.015625)"/>
    </defs>
    <use xlink:href="#DejaVuSerif-43"/>
    <use xlink:href="#DejaVuSerif-65" x="76.513672"/>
    <use xlink:href="#DejaVuSerif-6e" x="135.693359"/>
    <use xlink:href="#DejaVuSerif-74" x="200.097656"/>
    <use xlink:href="#DejaVuSerif-72" x="240.283203"/>
    <use xlink:href="#DejaVuSerif-61" x="288.085938"/>
    <use xlink:href="#DejaVuSerif-6c" x="347.705078"/>
    <use xlink:href="#DejaVuSerif-20" x="379.6875"/>
    <use xlink:href="#DejaVuSerif-41" x="411.474609"/>
    <use xlink:href="#DejaVuSerif-6e" x="483.691406"/>
    <use xlink:href="#DejaVuSerif-6e" x="548.095703"/>
    <use xlink:href="#DejaVuSerif-20" x="612.5"/>
    <use xlink:href="#DejaVuSerif-41" x="644.287109"/>
    <use xlink:href="#DejaVuSerif-72" x="716.503906"/>
    <use xlink:href="#DejaVuSerif-62" x="764.306641"/>
    <use xlink:href="#DejaVuSerif-6f" x="828.320312"/>
    <use xlink:href="#DejaVuSerif-72" x="888.525391"/>
    <use xlink:href="#DejaVuSerif-20" x="936.328125"/>
    <use xlink:href="#DejaVuSerif-75" x="968.115234"/>
    <use xlink:href="#DejaVuSerif-72" x="1032.519531"/>
    <use xlink:href="#DejaVuSerif-62" x="1080.322266"/>
    <use xlink:href="#DejaVuSerif-61" x="1144.335938"/>
    <use xlink:href="#DejaVuSerif-6e" x="1203.955078"/>
    <use xlink:href="#DejaVuSerif-20" x="1268.359375"/>
    <use xlink:href="#DejaVuSerif-64" x="1300.146484"/>
    <use xlink:href="#DejaVuSerif-69" x="1364.160156"/>
    <use xlink:href="#DejaVuSerif-73" x="1396.142578"/>
    <use xlink:href="#DejaVuSerif-74" x="1447.460938"/>
    <use xlink:href="#DejaVuSerif-72" x="1487.646484"/>
    <use xlink:href="#DejaVuSerif-69" x="1535.449219"/>
    <use xlink:href="#DejaVuSerif-63" x="1567.431641"/>
    <use xlink:href="#DejaVuSerif-74" x="1623.4375"/>
    <use xlink:href="#DejaVuSerif-20" x="1663.623047"/>
    <use xlink:href="#DejaVuSerif-b7" x="1695.410156"/>
    <use xlink:href="#DejaVuSerif-20" x="1727.197266"/>
    <use xlink:href="#DejaVuSerif-31" x="1758.984375"/>
    <use xlink:href="#DejaVuSerif-39" x="1822.607422"/>
    <use xlink:href="#DejaVuSerif-2e" x="1886.230469"/>
    <use xlink:href="#DejaVuSerif-36" x="1918.017578"/>
    <use xlink:href="#DejaVuSerif-33" x="1981.640625"/>
    <use xlink:href="#DejaVuSerif-33" x="2045.263672"/>
    <use xlink:href="#DejaVuSerif-20" x="2108.886719"/>
    <use xlink:href="#DejaVuSerif-6b" x="2140.673828"/>
    <use xlink:href="#DejaVuSerif-6d" x="2201.269531"/>
    <use xlink:href="#DejaVuSerif-b2" x="2296.09375"/>
   </g>
  </g>
 </g>
 <defs>
  <clipPath id="pf600d69b4e">
   <rect x="47.52" y="46.656" width="336.96" height="147.744"/>
  </clipPath>
 </defs>
</svg>
